<?xml version="1.0" encoding="UTF-8" standalone="no"?>
<svg
   width="361.40393"
   height="429.85345"
   viewBox="0 0 361.40393 429.85345"
   version="1.1"
   id="svg3"
   sodipodi:docname="trace_logo_2.svg"
   inkscape:export-filename="trace_logo_2.png"
   inkscape:export-xdpi="96"
   inkscape:export-ydpi="96"
   xmlns:inkscape="http://www.inkscape.org/namespaces/inkscape"
   xmlns:sodipodi="http://sodipodi.sourceforge.net/DTD/sodipodi-0.dtd"
   xmlns="http://www.w3.org/2000/svg"
   xmlns:svg="http://www.w3.org/2000/svg">
  <defs
     id="defs3" />
  <sodipodi:namedview
     id="namedview3"
     pagecolor="#ffffff"
     bordercolor="#000000"
     borderopacity="0.25"
     inkscape:showpageshadow="2"
     inkscape:pageopacity="0.0"
     inkscape:pagecheckerboard="0"
     inkscape:deskcolor="#d1d1d1" />
  <path
     d="m 272.953,82.094982 -3.953,4.25 4.25,-3.953 c 2.337,-2.174 4.25,-4.087 4.25,-4.25 0,-0.757 -0.871,0.001 -4.547,3.953 m -146.958,11.821 c -4.122,5.54 -7.495,10.658998 -7.495,11.377998 0,0.718 0.675,1.866 1.5,2.551 0.861,0.715 1.5,2.896 1.5,5.122 0,5.266 -2.566,7.626 -9.21,8.472 -4.596,0.586 -5.865,1.28 -9.669,5.29 -10.364,10.925 -21.143,29.064 -26.133,43.98 -3.509,10.486 -4.865,22.416 -3.846,33.822 1.117,12.497 9.738,27.314 15.893,27.314 2.368,0 2.359,0.199 0.353,-7.799 -2.138,-8.528 -1.569,-24.2 1.06,-29.177 2.803,-5.305 11.476,-13.196 18,-16.378 5.067,-2.472 6.738,-2.8 12.452,-2.444 7.289,0.454 14.318,3.38 22.328,9.294 4.311,3.184 4.642,3.717 3.753,6.054 -1.007,2.649 0.81,7.879 2.993,8.61 0.559,0.187 -14.739,11.971 -33.995,26.186 l -35.011,25.845 2.766,3.729 c 1.521,2.052 6.35,8.533 10.73,14.405 l 7.964,10.675 h 78.572 78.572 l 7.964,-10.675 c 4.38,-5.872 9.209,-12.353 10.73,-14.405 l 2.766,-3.729 -35.011,-25.845 c -19.256,-14.215 -34.554,-25.999 -33.995,-26.186 2.174,-0.729 4,-5.961 2.999,-8.593 -0.892,-2.346 -0.519,-2.878 4.745,-6.766 12.328,-9.107 23.586,-11.137 33.864,-6.104 6.291,3.08 15.216,11.215 17.92,16.332 2.61,4.94 3.176,20.431 1.045,28.615 -2.03,7.799 -2.008,8.356 0.324,8.356 6.146,0 14.828,-14.941 15.946,-27.442 2.098,-23.47 -5.342,-45.152 -24.143,-70.353 -7.883,-10.567 -9.347,-11.723 -16.048,-12.669 -2.662,-0.375 -5.686,-1.544 -6.75,-2.608 -2.357,-2.357 -2.622,-9.107 -0.428,-10.928 0.825,-0.685 1.5,-1.833 1.5,-2.551 0,-2.445 -14.903,-21.448998 -16.82,-21.448998 -2.092,0 -34.18,23.698998 -34.18,25.242998 0,0.559 3.471,5.682 7.714,11.386 8.196,11.019 10.257,12.271 13.786,8.371 2.628,-2.904 5.23,-2.47 9.24,1.54 l 3.54,3.54 -0.545,7.955 c -0.349,5.091 -1.219,9.127 -2.415,11.21 -1.028,1.79 -6.475,6.706 -12.105,10.923 -10.13,7.59 -10.265,7.654 -13.178,6.2 -3.351,-1.671 -4.981,-1.059 -12.787,4.8 l -4.25,3.189 -4.25,-3.189 c -7.883,-5.917 -9.417,-6.481 -12.905,-4.741 l -3.061,1.527 -10.094,-7.727 c -12.25,-9.377 -13.886,-11.899 -14.49,-22.339 l -0.454,-7.834 3.527,-3.527 c 3.997,-3.997 6.601,-4.428 9.227,-1.527 3.529,3.9 5.59,2.648 13.786,-8.371 4.243,-5.704 7.714,-10.827 7.714,-11.386 0,-1.544 -32.088,-25.242998 -34.18,-25.242998 -1.155,0 -4.591,3.711 -9.325,10.071 M 40.071,177.41598 c -2.021,2.021 -2.021,6.837 0,8.858 3.491,3.49 9.429,0.591 9.429,-4.603 0,-4.878 -6.067,-7.616 -9.429,-4.255 m 273.084,0.258 c -2.186,2.415 -2.103,6.455 0.174,8.516 3.833,3.469 9.171,0.988 9.171,-4.261 0,-5.253 -5.979,-7.975 -9.345,-4.255 m -165.49,69.214 -32.336,23.957 h 65.173 65.172 l -32.488,-24 c -17.869,-13.2 -32.646,-23.981 -32.837,-23.957 -0.192,0.023 -14.9,10.823 -32.684,24 m 23.835,2.957 v 9 h 9 9 v -9 -9 h -9 -9 v 9 m -117.429,136.571 c -1.859,1.86 -2.07,6.53 -0.371,8.229 0.66,0.66 2.595,1.2 4.3,1.2 3.925,0 5.5,-1.575 5.5,-5.5 0,-1.705 -0.54,-3.64 -1.2,-4.3 -1.699,-1.699 -6.369,-1.488 -8.229,0.371 m 143.772,5.929 c 0.003,4.4 0.179,6.076 0.39,3.724 0.212,-2.352 0.209,-5.952 -0.006,-8 -0.215,-2.048 -0.388,-0.124 -0.384,4.276 m 100.654,-5.997 c -0.686,0.827 -1.247,2.625 -1.247,3.997 0,1.372 0.561,3.17 1.247,3.997 1.492,1.797 7.115,1.991 8.803,0.303 1.699,-1.699 1.488,-6.369 -0.371,-8.229 -1.995,-1.994 -6.801,-2.033 -8.432,-0.068"
     stroke="none"
     fill="#00b7c5"
     fill-rule="evenodd"
     id="path1" />
  <path
     d="M 156.201,1.4199821 C 118.276,6.6049821 83.238,23.739982 55.139,50.843982 27.878,77.139982 10.295,109.46398 2.374,147.84498 l -2.374,11.5 v 124.5 124.5 l 2.703,5.123 c 1.486,2.818 4.774,6.947 7.305,9.175 8.824,7.767 -4.583,7.202 170.92,7.201 l 157.072,-10e-4 6.009,-2.842 c 6.417,-3.036 11.091,-7.614 14.735,-14.434 l 2.256,-4.222 0.302,-115.5 c 0.322,-122.89 0.136,-129.169 -4.445,-149.883 C 344.044,85.015982 303.389,36.276982 248.402,12.938982 236.351,7.8239821 215.148,2.3759821 201.711,0.94298215 c -13.327,-1.422 -33.136,-1.214 -45.51,0.47699995 M 154,12.933982 c -33.142,5.808 -59.904,18.167 -84.195,38.88 -25.615,21.843 -46.677,56.174998 -54.392,88.661998 -4.795,20.189 -4.873,22.511 -4.893,146.803 l -0.02,116.935 2.144,4.429 c 1.425,2.944 3.67,5.397 6.696,7.315 l 4.552,2.887 H 180.5 337.108 l 4.552,-2.887 c 3.026,-1.918 5.271,-4.371 6.696,-7.315 l 2.144,-4.429 -0.008,-115.935 c -0.008,-115.479 -0.251,-125.123 -3.567,-141.667 -3.961,-19.766 -15.501,-45.918 -28.136,-63.766998 -9.488,-13.402 -31.155,-34.75 -43.789,-43.144 -29.797,-19.797 -60.059,-28.91 -95.5,-28.757 -9.587,0.041 -18.227,0.716 -25.5,1.99 m 9,6.012 c -17.269,1.802 -40.05,8.595 -56.256,16.776 -17.336,8.751 -39.021,26.443 -52.242,42.623 -12.114,14.824 -21.746,32.492998 -28.019,51.394998 -7.694,23.186 -7.322,18.42 -7.716,98.855 l -0.353,72.25 h 162.093 162.092 l -0.361,-70.75 c -0.352,-68.944 -0.419,-71.005 -2.601,-80.75 -7.27,-32.46 -22.305,-60.402998 -44.637,-82.961998 -35.672,-36.034 -81.937,-52.661 -132,-47.437 m -4.048,18.332 c -1.232,1.88 -1.346,2.897 -0.5,4.477 0.888,1.659 0.701,2.437 -0.991,4.129 -2.693,2.693 -2.176,5.994 1.237,7.904 2.502,1.399 2.917,1.348 5.697,-0.707 1.764,-1.304 3.251,-1.809 3.611,-1.227 0.744,1.205 5.494,1.331 5.494,0.146 0,-0.465 -0.898,-1.658 -1.996,-2.652 -1.448,-1.31 -1.709,-2.153 -0.952,-3.066 1.404,-1.692 -0.673,-2.997 -2.438,-1.532 -2.072,1.72 -2.657,0.091 -0.92,-2.561 1.263,-1.928 1.36,-2.931 0.469,-4.885 -1.549,-3.399 -6.491,-3.414 -8.711,-0.026 m 32.809,-0.904 c -3.187,2.233 -4.515,7.928 -2.802,12.026 1.709,4.092 4.162,5.445 9.868,5.445 3.144,0 4.638,-0.467 5.066,-1.582 0.924,-2.409 0.909,-2.418 -3.822,-2.418 -4.955,0 -7.571,-1.871 -7.571,-5.416 0,-4.576 4.867,-6.726 10.435,-4.609 2.207,0.839 2.565,0.705 2.565,-0.965 0,-1.067 -0.87,-2.405 -1.934,-2.975 -2.855,-1.527 -9.303,-1.257 -11.805,0.494 m -29.261,3.971 c 0,0.917 0.484,1.505 1.075,1.308 0.591,-0.197 1.075,-0.785 1.075,-1.308 0,-0.523 -0.484,-1.111 -1.075,-1.308 -0.591,-0.197 -1.075,0.391 -1.075,1.308 m 53,-0.252 c -1.375,0.697 -3.323,2.949 -4.33,5.004 -4.327,8.837 4.414,16.859 13.341,12.242 3.677,-1.901 5.893,-8.214 4.194,-11.944 -2.149,-4.716 -8.963,-7.452 -13.205,-5.302 m -87.25,3.441 c -1.518,0.397 -1.75,1.771 -1.75,10.384 0,5.46 0.413,9.927 0.918,9.927 2.426,0 4.082,-1.431 4.082,-3.528 0,-2.817 4.736,-4.279 7.755,-2.393 1.307,0.816 2.481,0.888 3.665,0.226 1.534,-0.859 0.995,-1.837 -4.485,-8.14 -3.425,-3.941 -6.724,-7.113 -7.331,-7.049 -0.607,0.064 -1.891,0.322 -2.854,0.573 m 87.102,2.737 c -2.62,5.75 2.775,11.032 7.188,7.038 2.188,-1.981 2.597,-6.427 0.76,-8.264 -2.156,-2.156 -6.729,-1.451 -7.948,1.226 m -54.877,1.104 c -1.938,2.335 0.436,4.487 2.582,2.341 1.327,-1.326 1.344,-1.708 0.126,-2.719 -1.107,-0.918 -1.701,-0.835 -2.708,0.378 m 73.916,6.687 c -3.889,7.734 -4.006,8.225 -2.275,9.492 1.649,1.205 2.049,0.896 4.124,-3.187 1.264,-2.487 2.483,-4.522 2.708,-4.522 0.226,0 0.941,2.588 1.589,5.75 2.199,10.718 4.243,10.839 9.333,0.552 3.605,-7.284 3.712,-7.769 1.999,-9.022 -1.632,-1.192 -2.055,-0.851 -4.272,3.448 l -2.461,4.772 -0.801,-3 c -0.441,-1.65 -1.264,-4.866 -1.829,-7.147 -1.718,-6.932 -3.507,-6.3 -8.115,2.864 m -103.891,-3.276 c 0,2.186 1.504,3.484 2.98,2.572 0.616,-0.382 0.527,-1.329 -0.241,-2.559 -1.557,-2.494 -2.739,-2.499 -2.739,-0.013 m -22,2.428 c -3.025,1.848 -5.361,3.951 -5.191,4.672 0.169,0.721 2.111,4.398 4.315,8.171 l 4.006,6.86 5.685,-3.199 c 3.127,-1.76 5.853,-3.332 6.059,-3.493 0.205,-0.162 0.092,-1.026 -0.252,-1.922 -0.551,-1.437 -1.152,-1.333 -5.125,0.888 -4.183,2.338 -4.567,2.392 -5.438,0.764 -0.743,-1.388 -0.329,-2.11 2.002,-3.487 2.976,-1.758 4.006,-4.623 1.662,-4.623 -0.703,0 -2.279,0.701 -3.502,1.558 -1.224,0.857 -2.674,1.28 -3.223,0.941 -1.991,-1.231 -0.916,-3.177 2.956,-5.353 2.617,-1.471 3.764,-2.717 3.393,-3.684 -0.768,-2.001 -1.086,-1.918 -7.347,1.907 m 150.219,8.19 c -2.756,1.931 -2.843,5.378 -0.219,8.714 2.169,2.758 2.648,5.727 0.923,5.727 -0.592,0 -2.43,-1.353 -4.084,-3.007 -2.959,-2.959 -4.839,-3.168 -4.839,-0.538 0,0.736 1.62,2.76 3.6,4.498 4.382,3.848 8.131,3.811 10.318,-0.103 1.379,-2.469 1.296,-2.929 -1.219,-6.729 -3.217,-4.861 -3.256,-5.121 -0.772,-5.121 1.061,0 2.809,1.12 3.886,2.49 1.735,2.206 2.106,2.313 3.245,0.941 1.082,-1.305 0.824,-1.998 -1.636,-4.389 -3.802,-3.694 -6.452,-4.409 -9.203,-2.483 m -164.969,1.103 c -1.969,0.795 -1.506,2.189 2.25,6.773 3.956,4.827 4.444,7.989 1.479,9.576 -2.695,1.443 -4.754,-0.089 -10.668,-7.934 -1.079,-1.431 -1.345,-1.423 -2.88,0.089 -1.586,1.562 -1.423,1.985 2.617,6.776 2.37,2.81 5.362,5.374 6.65,5.697 4.812,1.208 11.302,-3.661 11.302,-8.478 0,-1.86 -7.757,-13.239 -8.918,-13.082 -0.32,0.043 -1.144,0.306 -1.832,0.583 m 180.876,9.686 c -0.854,1.03 -0.639,1.783 0.911,3.185 2.019,1.828 2.002,1.864 -3.219,7.151 -4.958,5.021 -5.153,5.409 -3.532,7.03 1.621,1.621 2.009,1.426 7.03,-3.532 l 5.314,-5.248 1.868,2.064 c 1.678,1.854 2.024,1.908 3.4,0.532 1.376,-1.376 0.979,-2.092 -3.899,-7.031 -2.987,-3.024 -5.728,-5.499 -6.092,-5.499 -0.364,0 -1.166,0.607 -1.781,1.348 m -200.738,9.611 c -3.202,1.326 -6.388,5.952 -6.388,9.276 0,4.018 5.695,9.764998 9.677,9.764998 1.583,0 3.802,-0.647 4.931,-1.437998 1.129,-0.791 3.506,-1.397 5.283,-1.346 4.185,0.119 6.998,-2.44 5.14,-4.678 -1,-1.205 -1.615,-1.298 -2.688,-0.408 -1.689,1.402 -1.684,1.408 -3.204,-3.884 -1.699,-5.917 -7.733,-9.366 -12.751,-7.287 m 52.107,12.112 c -4.122,5.54 -7.495,10.658998 -7.495,11.377998 0,0.718 0.675,1.866 1.5,2.551 0.861,0.715 1.5,2.896 1.5,5.122 0,5.266 -2.566,7.626 -9.21,8.472 -4.596,0.586 -5.865,1.28 -9.669,5.29 -10.364,10.925 -21.143,29.064 -26.133,43.98 -3.509,10.486 -4.865,22.416 -3.846,33.822 1.117,12.497 9.738,27.314 15.893,27.314 2.368,0 2.359,0.199 0.353,-7.799 -2.138,-8.528 -1.569,-24.2 1.06,-29.177 2.803,-5.305 11.476,-13.196 18,-16.378 5.067,-2.472 6.738,-2.8 12.452,-2.444 7.289,0.454 14.318,3.38 22.328,9.294 4.311,3.184 4.642,3.717 3.753,6.054 -1.007,2.649 0.81,7.879 2.993,8.61 0.559,0.187 -14.739,11.971 -33.995,26.186 l -35.011,25.845 2.766,3.729 c 1.521,2.052 6.35,8.533 10.73,14.405 l 7.964,10.675 h 78.572 78.572 l 7.964,-10.675 c 4.38,-5.872 9.209,-12.353 10.73,-14.405 l 2.766,-3.729 -35.011,-25.845 c -19.256,-14.215 -34.554,-25.999 -33.995,-26.186 2.174,-0.729 4,-5.961 2.999,-8.593 -0.892,-2.346 -0.519,-2.878 4.745,-6.766 12.328,-9.107 23.586,-11.137 33.864,-6.104 6.291,3.08 15.216,11.215 17.92,16.332 2.61,4.94 3.176,20.431 1.045,28.615 -2.03,7.799 -2.008,8.356 0.324,8.356 6.146,0 14.828,-14.941 15.946,-27.442 2.098,-23.47 -5.342,-45.152 -24.143,-70.353 -7.883,-10.567 -9.347,-11.723 -16.048,-12.669 -2.662,-0.375 -5.686,-1.544 -6.75,-2.608 -2.357,-2.357 -2.622,-9.107 -0.428,-10.928 0.825,-0.685 1.5,-1.833 1.5,-2.551 0,-2.445 -14.903,-21.448998 -16.82,-21.448998 -2.092,0 -34.18,23.698998 -34.18,25.242998 0,0.559 3.471,5.682 7.714,11.386 8.196,11.019 10.257,12.271 13.786,8.371 2.628,-2.904 5.23,-2.47 9.24,1.54 l 3.54,3.54 -0.545,7.955 c -0.349,5.091 -1.219,9.127 -2.415,11.21 -1.028,1.79 -6.475,6.706 -12.105,10.923 -10.13,7.59 -10.265,7.654 -13.178,6.2 -3.351,-1.671 -4.981,-1.059 -12.787,4.8 l -4.25,3.189 -4.25,-3.189 c -7.883,-5.917 -9.417,-6.481 -12.905,-4.741 l -3.061,1.527 -10.094,-7.727 c -12.25,-9.377 -13.886,-11.899 -14.49,-22.339 l -0.454,-7.834 3.527,-3.527 c 3.997,-3.997 6.601,-4.428 9.227,-1.527 3.529,3.9 5.59,2.648 13.786,-8.371 4.243,-5.704 7.714,-10.827 7.714,-11.386 0,-1.544 -32.088,-25.242998 -34.18,-25.242998 -1.155,0 -4.591,3.711 -9.325,10.071 m -52.84,-6.242 c -2.247,2.483 -2.086,3.83 0.8,6.716 2.844,2.845 4.769,3.089 6.974,0.884 2.107,-2.108 1.987,-5.743 -0.258,-7.774 -2.399,-2.171 -5.458,-2.1 -7.516,0.174 m 211.606,4.792 c -6.448,4.848 -7.109,5.649 -6.054,7.339 1.162,1.860998 1.237,1.859998 3.893,-0.031 1.49,-1.061 2.929,-1.929 3.197,-1.929 1.425,0 1.421,3.327998 -0.006,5.815998 -1.553,2.705 -1.293,6.184 0.462,6.184 0.449,0 1.572,-1.28 2.497,-2.845 0.975,-1.651 3.054,-3.24 4.953,-3.784 5.987,-1.717 6.163,-6.851998 0.467,-13.615998 l -2.17,-2.576 -7.239,5.442 m 5.511,1.804 c -1.469,1.074 -1.527,1.528 -0.392,3.08 1.481,2.025 4.62,1.447 4.62,-0.851 0,-2.426 -2.301,-3.638 -4.228,-2.229 M 56.423,104.76798 c -2.164,2.164 -2.923,3.872 -2.923,6.577 0,7.863 10.248,12.644 15.873,7.404 4.957,-4.619 4.934,-10.205 -0.059,-14.407 -4.192,-3.528 -9.099,-3.366 -12.891,0.426 m 2.517,3.528 c -2.075,3.167 -1.126,6.022 2.503,7.525 2.142,0.888 3.409,0.906 4.966,0.073 2.886,-1.545 2.81,-6.432 -0.132,-8.492 -3.161,-2.215 -5.486,-1.931 -7.337,0.894 m 239.346,0.595 c -7.067,3.648 -8.434,5.849 -6.871,11.065 1.264,4.219 4.303,6.889 7.841,6.889 1.817,0 11.44,-4.077 13.085,-5.545 0.188,-0.167 0.054,-1.209 -0.297,-2.315 -0.621,-1.957 -0.8,-1.934 -6.745,0.877 -7.11,3.363 -10.142,2.784 -9.609,-1.834 0.244,-2.115 1.511,-3.321 5.982,-5.696 4.768,-2.532 5.518,-3.29 4.701,-4.75 -1.238,-2.212 -1.281,-2.205 -8.087,1.309 m -251.65,16.29 c -1.195,1.439 -4.344,9.789 -3.871,10.262 0.31,0.31 16.665,6.402 17.187,6.402 0.173,0 0.559,-0.935 0.858,-2.078 0.425,-1.625 -0.093,-2.299 -2.383,-3.097 -1.809,-0.631 -2.927,-1.725 -2.927,-2.865 0,-1.456 0.897,-1.91 4.25,-2.153 3.5,-0.253 4.305,-0.695 4.563,-2.504 0.284,-2.002 -0.009,-2.145 -3.297,-1.612 -2.875,0.467 -4.015,0.151 -5.602,-1.553 -2.244,-2.408 -7.078,-2.85 -8.778,-0.802 m 2.077,3.852 c -1.701,1.7 -1.509,3.484 0.454,4.238 2.085,0.8 3.629,-0.652 3.177,-2.987 -0.437,-2.253 -2.068,-2.815 -3.631,-1.251 m 260.741,4.358 c -2.962,3 -6.114,5.454 -7.003,5.454 -2.241,0 -2.818,0.792 -2.227,3.051 0.42,1.609 1.12,1.841 4.141,1.375 1.999,-0.309 6.448,0.104 9.885,0.918 3.438,0.813 6.25,1.105 6.25,0.649 0,-2.594 -1.637,-4.071 -5.131,-4.63 -2.152,-0.344 -4.112,-0.948 -4.356,-1.341 -0.243,-0.394 0.892,-1.994 2.523,-3.556 2.876,-2.756 3.828,-5.814 2.134,-6.861 -0.456,-0.282 -3.253,1.942 -6.216,4.941 m -269.318,10.204 c -0.274,0.963 -1.023,4.396 -1.665,7.63 -0.953,4.803 -0.92,6.037 0.181,6.735 2.051,1.3 2.846,1.06 2.863,-0.865 0.033,-3.781 1.17,-4.172 7.985,-2.75 4.928,1.028 6.653,1.07 7.222,0.176 1.635,-2.571 0.491,-3.407 -6.325,-4.625 -7.032,-1.257 -7.098,-1.298 -6.543,-4.07 0.395,-1.975 0.107,-2.974 -0.979,-3.391 -2.138,-0.82 -2.18,-0.802 -2.739,1.16 m 274.364,9.802 c -0.825,0.177 -3.639,0.602 -6.254,0.946 -4.226,0.556 -4.703,0.868 -4.304,2.814 0.247,1.203 0.726,4.325 1.065,6.938 0.471,3.634 1.029,4.75 2.375,4.75 1.532,0 1.676,-0.651 1.112,-5.047 -0.604,-4.708 -0.508,-5.027 1.429,-4.75 1.544,0.221 2.159,1.147 2.395,3.607 0.238,2.479 0.74,3.226 2,2.975 1.29,-0.257 1.606,-1.202 1.354,-4.06 -0.278,-3.147 -0.024,-3.725 1.636,-3.725 1.562,0 2.103,0.923 2.64,4.5 0.503,3.357 1.118,4.5 2.42,4.5 1.585,0 1.658,-0.645 0.798,-7 -0.947,-6.999 -0.948,-7 -4.057,-6.884 -1.71,0.064 -3.784,0.26 -4.609,0.436 m -274.429,24.019 c -2.021,2.021 -2.021,6.837 0,8.858 3.491,3.49 9.429,0.591 9.429,-4.603 0,-4.878 -6.067,-7.616 -9.429,-4.255 m 273.084,0.258 c -2.186,2.415 -2.103,6.455 0.174,8.516 3.833,3.469 9.171,0.988 9.171,-4.261 0,-5.253 -5.979,-7.975 -9.345,-4.255 M 37.5,204.84498 v 7 h 4.389 c 5.731,0 8.944,-2.515 8.944,-7 0,-4.485 -3.213,-7 -8.944,-7 H 37.5 v 7 m 3,0 c 0,3.883 0.16,4.114 2.649,3.816 5.631,-0.672 5.631,-6.96 0,-7.632 -2.489,-0.298 -2.649,-0.067 -2.649,3.816 m 272.667,3.667 c -1.57,1.57 -0.452,2.54 2.294,1.991 4.609,-0.922 4.665,1.128 0.156,5.723 -2.265,2.307 -4.117,4.515 -4.117,4.907 0,0.392 2.7,0.712 6,0.712 4.667,0 6,-0.333 6,-1.5 0,-0.959 -0.964,-1.5 -2.674,-1.5 h -2.675 l 2.026,-2.25 c 3.13,-3.476 3.501,-4.548 2.334,-6.729 -0.794,-1.483 -2.092,-2.021 -4.88,-2.021 -2.088,0 -4.098,0.3 -4.464,0.667 M 38.5,223.84498 v 7 H 44 c 4.222,0 5.5,-0.348 5.5,-1.5 0,-1.048 -1.056,-1.5 -3.5,-1.5 -2.444,0 -3.5,-0.452 -3.5,-1.5 0,-0.933 0.944,-1.5 2.5,-1.5 1.375,0 2.5,-0.45 2.5,-1 0,-0.55 -1.125,-1 -2.5,-1 -1.556,0 -2.5,-0.567 -2.5,-1.5 0,-1.048 1.056,-1.5 3.5,-1.5 2.444,0 3.5,-0.452 3.5,-1.5 0,-1.152 -1.278,-1.5 -5.5,-1.5 h -5.5 v 7 m 109.165,23.043 -32.336,23.957 h 65.173 65.172 l -32.488,-24 c -17.869,-13.2 -32.646,-23.981 -32.837,-23.957 -0.192,0.023 -14.9,10.823 -32.684,24 m 165.392,-17.82 c -3.382,4.828 -0.76,11.777 4.443,11.777 1.849,0 3.446,-0.799 4.443,-2.223 3.382,-4.828 0.76,-11.777 -4.443,-11.777 -1.849,0 -3.446,0.799 -4.443,2.223 m 2.443,4.777 c 0,3.251 0.353,4 1.883,4 1.043,0 2.117,-0.893 2.407,-2 0.817,-3.126 -0.335,-6 -2.407,-6 -1.53,0 -1.883,0.749 -1.883,4 m -275.918,3.401 c -1.95,2.35 -0.881,4.967 2.669,6.529 4.289,1.889 4.139,3.393 -0.286,2.876 -2.791,-0.326 -3.474,-0.085 -3.242,1.141 0.372,1.969 7.321,2.676 9.395,0.955 2.365,-1.963 1.225,-5.251 -2.368,-6.832 -4.093,-1.802 -4.161,-3.07 -0.167,-3.07 4.315,0 3.239,-2.416 -1.246,-2.801 -2.21,-0.189 -3.97,0.256 -4.755,1.202 m 131.918,12.599 v 9 h 9 9 v -9 -9 h -9 -9 v 9 m 141.557,-1.777 c -3.382,4.828 -0.76,11.777 4.443,11.777 1.849,0 3.446,-0.799 4.443,-2.223 3.382,-4.828 0.76,-11.777 -4.443,-11.777 -1.849,0 -3.446,0.799 -4.443,2.223 m 2.443,4.777 c 0,3.251 0.353,4 1.883,4 1.043,0 2.117,-0.893 2.407,-2 0.817,-3.126 -0.335,-6 -2.407,-6 -1.53,0 -1.883,0.749 -1.883,4 m -278,9 v 7 h 4.389 c 5.731,0 8.944,-2.515 8.944,-7 0,-4.485 -3.213,-7 -8.944,-7 H 37.5 v 7 m 3,0 c 0,3.883 0.16,4.114 2.649,3.816 5.631,-0.672 5.631,-6.96 0,-7.632 -2.489,-0.298 -2.649,-0.067 -2.649,3.816 m 275.085,7.641 c -5.23,5.941 -5.246,7.359 -0.085,7.359 2.2,0 4,0.45 4,1 0,1.441 2.698,1.234 3.255,-0.25 0.957,-2.549 -0.478,-12.75 -1.794,-12.75 -0.71,0 -3.129,2.088 -5.376,4.641 m 1.57,1.188 c -2.172,2.4 -2.088,3.171 0.345,3.171 1.467,0 2,-0.667 2,-2.5 0,-2.987 -0.198,-3.043 -2.345,-0.671 M 38.5,280.84498 v 7 H 44 c 4.222,0 5.5,-0.348 5.5,-1.5 0,-1.048 -1.056,-1.5 -3.5,-1.5 -2.444,0 -3.5,-0.452 -3.5,-1.5 0,-0.933 0.944,-1.5 2.5,-1.5 1.375,0 2.5,-0.45 2.5,-1 0,-0.55 -1.125,-1 -2.5,-1 -1.556,0 -2.5,-0.567 -2.5,-1.5 0,-1.048 1.056,-1.5 3.5,-1.5 2.444,0 3.5,-0.452 3.5,-1.5 0,-1.152 -1.278,-1.5 -5.5,-1.5 h -5.5 v 7 m -12.333,38.667 c -0.367,0.366 -0.667,1.941 -0.667,3.5 0,2.571 0.324,2.833 3.5,2.833 h 3.5 v 10.5 10.5 h 4 4 v -10.5 -10.5 h 2.883 c 2.35,0 2.981,-0.508 3.408,-2.744 0.289,-1.51 0.315,-3.085 0.058,-3.5 -0.576,-0.932 -19.758,-1.014 -20.682,-0.089 m 25.333,13.333 v 14 h 4 4 v -4 c 0,-2.689 0.442,-4 1.348,-4 0.742,0 2.16,1.8 3.152,4 1.622,3.598 2.166,3.998 5.402,3.985 6.144,-0.026 6.673,-1.11 3.051,-6.249 l -3.206,-4.548 2.127,-2.283 c 2.278,-2.446 2.835,-7.713 1.147,-10.866 -1.412,-2.638 -6.326,-4.039 -14.17,-4.039 H 51.5 v 14 m 27,-3.605 c 0,5.781 0.5,11.607 1.11,12.948 1.479,3.245 4.878,4.657 11.215,4.657 9.397,0 11.66,-3.743 11.669,-19.307 l 0.006,-8.808 -4.25,0.308 -4.25,0.307 v 9.5 c 0,10.107 -0.542,12 -3.437,12 -3.396,0 -4.196,-2.447 -3.977,-12.177 l 0.21,-9.323 -4.148,-0.307 -4.148,-0.308 v 10.51 m 29.852,-9.645 c -0.082,0.413 -0.195,6.712 -0.25,13.999 l -0.102,13.249 9.75,10e-4 9.75,0.001 v -3.5 -3.5 H 122 c -4.925,0 -5.5,-0.22 -5.5,-2.105 0,-1.851 0.48,-2.059 3.98,-1.726 4.12,0.393 5.02,-0.369 5.02,-4.251 0,-1.607 -0.731,-1.918 -4.5,-1.918 -3.833,0 -4.5,-0.296 -4.5,-2 0,-1.752 0.667,-2 5.387,-2 5.222,0 5.399,-0.091 5.827,-3.006 0.243,-1.653 0.219,-3.228 -0.053,-3.5 -0.805,-0.805 -19.148,-0.562 -19.309,0.256 m 29.648,0.204 c -1.1,0.455 -3.125,2.038 -4.5,3.517 -2.205,2.373 -2.5,3.574 -2.5,10.192 0,7.208 0.128,7.615 3.266,10.419 1.796,1.605 4.271,2.928 5.5,2.939 1.229,0.012 5.345,2.037 9.148,4.5 3.802,2.464 7.264,4.479 7.693,4.479 0.982,0 3.894,-4.098 3.889,-5.473 -0.002,-0.565 -2.026,-1.859 -4.498,-2.875 l -4.494,-1.849 2.157,-3.029 c 4.614,-6.48 3.25,-18.333 -2.514,-21.848 -3.252,-1.982 -9.574,-2.45 -13.147,-0.972 m 22.897,0.453 c -0.322,0.841 -0.431,6.083 -0.242,11.649 0.329,9.655 0.474,10.231 3.151,12.532 4.036,3.47 13.352,3.47 17.388,0.001 2.732,-2.348 2.815,-2.72 3.144,-14.062 l 0.337,-11.651 -4.302,0.312 -4.302,0.312 0.299,9.296 c 0.313,9.741 -0.481,12.204 -3.933,12.204 -2.895,0 -3.437,-1.893 -3.437,-12 v -9.5 l -3.758,-0.311 c -2.66,-0.22 -3.93,0.136 -4.345,1.218 m 29.603,12.557 v 14.036 h 9.392 c 9.229,0 9.402,-0.044 10.03,-2.546 0.946,-3.768 0.025,-4.454 -5.981,-4.454 -4.841,0 -5.441,-0.229 -5.441,-2.076 0,-1.826 0.514,-2.039 4.25,-1.765 4.135,0.304 4.258,0.225 4.563,-2.923 0.312,-3.221 0.293,-3.236 -4.25,-3.236 -3.896,0 -4.563,-0.292 -4.563,-2 0,-1.78 0.667,-2 6.063,-2 h 6.064 l -0.314,-3.25 -0.313,-3.25 -9.75,-0.286 -9.75,-0.286 v 14.036 m 22,-10.464 c 0,3.222 0.238,3.5 3,3.5 2.929,0 3.004,0.125 3.188,5.25 0.103,2.887 0.064,7.613 -0.086,10.5 l -0.274,5.25 h 4.392 4.391 l -0.055,-10.25 -0.056,-10.25 3.25,-0.313 c 2.975,-0.287 3.25,-0.604 3.25,-3.75 v -3.437 H 223 212.5 v 3.5 m 30.018,-1.805 c -7.476,3.876 -9.195,17.282 -3.009,23.468 2.486,2.486 3.58,2.837 8.837,2.837 4.956,0 6.522,-0.439 8.999,-2.523 5.697,-4.793 6.14,-16.946 0.814,-22.273 -3.329,-3.328 -10.751,-4.045 -15.641,-1.509 m 29,0 c -7.476,3.876 -9.195,17.282 -3.009,23.468 2.486,2.486 3.58,2.837 8.837,2.837 4.956,0 6.522,-0.439 8.999,-2.523 5.697,-4.793 6.14,-16.946 0.814,-22.273 -3.329,-3.328 -10.751,-4.045 -15.641,-1.509 m 23.982,12.305 v 14 h 8 8 v -3.5 c 0,-3.417 -0.095,-3.5 -4,-3.5 h -4 v -10.5 -10.5 h -4 -4 v 14 m 26,-13.291 c -2.471,0.909 -5.17,3.636 -6.16,6.225 -1.477,3.863 0.674,7.484 6.247,10.517 6.933,3.773 4.017,6.723 -3.039,3.074 -2.542,-1.315 -2.918,-1.306 -3.451,0.082 -1.325,3.454 -0.626,6.349 1.653,6.843 6.818,1.479 11.219,0.867 14.673,-2.039 5.618,-4.727 3.783,-10.546 -4.673,-14.82 -5.552,-2.806 -3.97,-5.168 2.07,-3.092 4.071,1.4 3.976,1.468 5.087,-3.635 0.465,-2.136 0.149,-2.75 -1.667,-3.236 -2.704,-0.725 -8.67,-0.68 -10.74,0.081 m -262,9.291 c 0,4.019 0.498,4.514 3.418,3.393 3.476,-1.334 1.427,-7.393 -2.5,-7.393 -0.505,0 -0.918,1.8 -0.918,4 m 80.667,-2.333 c -0.834,0.833 -0.88,10.615 -0.06,12.751 0.353,0.919 1.775,1.582 3.393,1.582 1.618,0 3.04,-0.663 3.393,-1.582 1.055,-2.75 0.657,-10.968 -0.593,-12.218 -1.294,-1.294 -5.047,-1.62 -6.133,-0.533 m 105.4,1.207 c -1.475,2.757 -1.338,9.373 0.239,11.53 0.797,1.09 2.245,1.652 3.717,1.441 3.107,-0.445 4.685,-5.407 3.389,-10.655 -0.736,-2.977 -1.43,-3.75 -3.595,-4 -1.866,-0.216 -3.007,0.297 -3.75,1.684 m 29,0 c -1.475,2.757 -1.338,9.373 0.239,11.53 0.797,1.09 2.245,1.652 3.717,1.441 3.107,-0.445 4.685,-5.407 3.389,-10.655 -0.736,-2.977 -1.43,-3.75 -3.595,-4 -1.866,-0.216 -3.007,0.297 -3.75,1.684 m -256.063,56.876 c 0.004,18.407 0.709,21.05 6.654,24.946 2.624,1.719 9.954,1.804 155.342,1.804 145.388,0 152.718,-0.085 155.342,-1.804 5.945,-3.896 6.65,-6.539 6.654,-24.946 l 0.004,-16.75 h -162 -162 l 0.004,16.75 m 56.996,5.25 v 10 H 78 c 2.19,0 2.5,-0.433 2.5,-3.5 0,-3.417 0.095,-3.5 4,-3.5 3.292,0 4,-0.343 4,-1.94 0,-1.519 -0.812,-2.006 -3.75,-2.25 -3.012,-0.249 -3.813,-0.753 -4.07,-2.56 -0.298,-2.102 0.047,-2.25 5.25,-2.25 4.903,0 5.57,-0.239 5.57,-2 0,-1.833 -0.667,-2 -8,-2 h -8 v 10 m 22,0 v 10 h 8 c 7.333,0 8,-0.167 8,-2 0,-1.758 -0.667,-2 -5.5,-2 -4.833,0 -5.5,-0.242 -5.5,-2 0,-1.667 0.667,-2 4,-2 3.333,0 4,-0.333 4,-2 0,-1.667 -0.667,-2 -4,-2 -3.333,0 -4,-0.333 -4,-2 0,-1.758 0.667,-2 5.5,-2 4.833,0 5.5,-0.242 5.5,-2 0,-1.833 -0.667,-2 -8,-2 h -8 v 10 m 23,-0.046 v 10.046 h 2.5 c 2.25,0 2.5,-0.4 2.5,-4 0,-2.864 0.42,-4 1.48,-4 0.813,0 2.398,1.8 3.52,4 1.538,3.015 2.641,4 4.479,4 h 2.439 l -1.79,-4.214 c -1.606,-3.783 -1.638,-4.478 -0.307,-6.797 1.286,-2.241 1.296,-2.975 0.071,-5.536 -1.331,-2.786 -1.793,-2.97 -8.151,-3.249 l -6.741,-0.295 v 10.045 m 23,0.046 v 10 h 2.5 c 2.25,0 2.5,-0.4 2.5,-4 0,-2.979 0.403,-4 1.58,-4 0.916,0 2.242,1.683 3.152,4 1.212,3.085 2.109,4 3.92,4 2.755,0 2.846,-0.564 0.857,-5.324 -0.942,-2.256 -1.126,-3.794 -0.5,-4.182 1.561,-0.964 1.156,-7.186 -0.58,-8.923 -1.076,-1.075 -3.444,-1.571 -7.5,-1.571 H 143.5 v 10 m 22,0 v 10 h 8 c 7.333,0 8,-0.167 8,-2 0,-1.758 -0.667,-2 -5.5,-2 -4.833,0 -5.5,-0.242 -5.5,-2 0,-1.667 0.667,-2 4,-2 3.333,0 4,-0.333 4,-2 0,-1.667 -0.667,-2 -4,-2 -3.333,0 -4,-0.333 -4,-2 0,-1.758 0.667,-2 5.5,-2 4.833,0 5.5,-0.242 5.5,-2 0,-1.833 -0.667,-2 -8,-2 h -8 v 10 m 21,-8 c 0,1.619 0.667,2 3.5,2 h 3.5 v 8 c 0,7.867 0.042,8 2.5,8 2.458,0 2.5,-0.133 2.5,-8 v -8 h 3 c 2.333,0 3,-0.444 3,-2 0,-1.852 -0.667,-2 -9,-2 -8.333,0 -9,0.148 -9,2 m 23,8 v 10 h 8 c 7.333,0 8,-0.167 8,-2 0,-1.758 -0.667,-2 -5.5,-2 -4.833,0 -5.5,-0.242 -5.5,-2 0,-1.667 0.667,-2 4,-2 3.333,0 4,-0.333 4,-2 0,-1.667 -0.667,-2 -4,-2 -3.333,0 -4,-0.333 -4,-2 0,-1.758 0.667,-2 5.5,-2 4.833,0 5.5,-0.242 5.5,-2 0,-1.833 -0.667,-2 -8,-2 h -8 v 10 m 23,-0.046 v 10.046 h 2.5 c 2.25,0 2.5,-0.4 2.5,-4 0,-2.864 0.42,-4 1.48,-4 0.813,0 2.398,1.8 3.52,4 1.538,3.015 2.641,4 4.479,4 h 2.439 l -1.79,-4.214 c -1.606,-3.783 -1.638,-4.478 -0.307,-6.797 1.286,-2.241 1.296,-2.975 0.071,-5.536 -1.331,-2.786 -1.793,-2.97 -8.151,-3.249 l -6.741,-0.295 v 10.045 m 23,0.046 v 10 h 2.5 2.5 v -10 -10 h -2.5 -2.5 v 10 m 13.894,0.013 -3.606,9.987 h 2.739 c 1.899,0 2.9,-0.614 3.263,-2 0.412,-1.577 1.364,-2 4.5,-2 3.136,0 4.087,0.423 4.5,2 0.36,1.377 1.364,2 3.223,2 1.739,0 2.538,-0.445 2.243,-1.25 -6.919,-18.864 -6.857,-18.751 -10.139,-18.737 -3.038,0.013 -3.208,0.266 -6.723,10 m -143.894,-4.013 c 0,1.737 0.511,2.074 2.75,1.816 1.637,-0.188 2.75,-0.923 2.75,-1.816 0,-0.893 -1.113,-1.628 -2.75,-1.816 -2.239,-0.258 -2.75,0.079 -2.75,1.816 m 23,0 c 0,1.737 0.511,2.074 2.75,1.816 1.637,-0.188 2.75,-0.923 2.75,-1.816 0,-0.893 -1.113,-1.628 -2.75,-1.816 -2.239,-0.258 -2.75,0.079 -2.75,1.816 m 89,0 c 0,1.737 0.511,2.074 2.75,1.816 1.637,-0.188 2.75,-0.923 2.75,-1.816 0,-0.893 -1.113,-1.628 -2.75,-1.816 -2.239,-0.258 -2.75,0.079 -2.75,1.816 m -183.429,0.571 c -1.859,1.86 -2.07,6.53 -0.371,8.229 0.66,0.66 2.595,1.2 4.3,1.2 3.925,0 5.5,-1.575 5.5,-5.5 0,-1.705 -0.54,-3.64 -1.2,-4.3 -1.699,-1.699 -6.369,-1.488 -8.229,0.371 m 244.426,-0.068 c -0.686,0.827 -1.247,2.625 -1.247,3.997 0,1.372 0.561,3.17 1.247,3.997 1.492,1.797 7.115,1.991 8.803,0.303 1.699,-1.699 1.488,-6.369 -0.371,-8.229 -1.995,-1.994 -6.801,-2.033 -8.432,-0.068 m -23.349,1.681 c -0.937,3.499 -0.819,3.816 1.419,3.816 1.679,0 1.94,-0.423 1.388,-2.25 -1.058,-3.503 -2.129,-4.1 -2.807,-1.566"
     stroke="none"
     fill="#1f486b"
     fill-rule="evenodd"
     id="path3" />
</svg>
